HIERARCHY
ROOT Hips
{
  OFFSET 0.000000 0.000000 0.000000
  CHANNELS 6 Xposition Yposition Zposition Zrotation Xrotation Yrotation
  JOINT Spine
  {
    OFFSET 0.769724 46.724870 -13.091491
    CHANNELS 3 Zrotation Xrotation Yrotation
    JOINT Spine1
    {
      OFFSET 0.000000 15.000000 0.000000
      CHANNELS 3 Zrotation Xrotation Yrotation
      JOINT Neck
      {
        OFFSET 0.000000 5.000000 0.000000
        CHANNELS 3 Zrotation Xrotation Yrotation
        JOINT Head
        {
          OFFSET -1.755462 0.819106 -29.216816
          CHANNELS 3 Zrotation Xrotation Yrotation
          End Site
          {
            OFFSET 0.0 -5.0 0.0
          }
        }
      }
      JOINT LeftShoulder
      {
        OFFSET 16.753096 -1.874518 -2.350806
        CHANNELS 3 Zrotation Xrotation Yrotation
        JOINT LeftArm
        {
          OFFSET 9.215470 -17.927143 -6.750691
          CHANNELS 3 Zrotation Xrotation Yrotation
          JOINT LeftForeArm
          {
            OFFSET -8.631796 -1.807562 -13.626102
            CHANNELS 3 Zrotation Xrotation Yrotation
            JOINT LeftHand
            {
              OFFSET -6.479284 4.149559 -4.074347
              CHANNELS 3 Zrotation Xrotation Yrotation
              End Site
              {
                OFFSET 0.0 -5.0 0.0
              }
            }
          }
        }
      }
      JOINT RightShoulder
      {
        OFFSET -16.753096 1.874518 2.350806
        CHANNELS 3 Zrotation Xrotation Yrotation
        JOINT RightArm
        {
          OFFSET -4.024878 -26.092607 -12.467419
          CHANNELS 3 Zrotation Xrotation Yrotation
          JOINT RightForeArm
          {
            OFFSET 6.746233 1.826222 -21.720462
            CHANNELS 3 Zrotation Xrotation Yrotation
            JOINT RightHand
            {
              OFFSET 8.689702 8.756606 -7.702330
              CHANNELS 3 Zrotation Xrotation Yrotation
              End Site
              {
                OFFSET 0.0 -5.0 0.0
              }
            }
          }
        }
      }
    }
  }
  JOINT LeftUpLeg
  {
    OFFSET 9.108096 0.180174 1.189578
    CHANNELS 3 Zrotation Xrotation Yrotation
    JOINT LeftLeg
    {
      OFFSET 8.006705 -41.225060 -10.059709
      CHANNELS 3 Zrotation Xrotation Yrotation
      JOINT LeftFoot
      {
        OFFSET 4.246485 -35.555318 10.676362
        CHANNELS 3 Zrotation Xrotation Yrotation
        End Site
        {
          OFFSET 0.0 -5.0 0.0
        }
      }
    }
  }
  JOINT RightUpLeg
  {
    OFFSET -9.108096 -0.180174 -1.189578
    CHANNELS 3 Zrotation Xrotation Yrotation
    JOINT RightLeg
    {
      OFFSET -2.107032 -32.214779 1.747249
      CHANNELS 3 Zrotation Xrotation Yrotation
      JOINT RightFoot
      {
        OFFSET -2.851593 -40.027121 17.168811
        CHANNELS 3 Zrotation Xrotation Yrotation
        End Site
        {
          OFFSET 0.0 -5.0 0.0
        }
      }
    }
  }
}

MOTION
Frames: 6
Frame Time: 0.041667
0.105392 0.161134 0.199275 179.392713 -172.401311 1.485774 -7.326942 8.290615 -1.625904 0.000000 0.000000 0.000000 0.000000 0.000000 -0.000000 0.674808 -6.705442 -9.008923 2.421400 0.027825 -2.346182 35.806367 42.020139 -5.413829 -7.149783 1.743399 -45.114050 0.541956 -11.045599 -18.166358 2.421400 0.027825 -2.346182 1.201821 7.186004 -1.816964 -0.068835 2.196540 -3.441693 -3.470666 2.830828 -5.488986 -1.729041 0.018109 5.955385 9.971517 23.728496 -1.486105 13.351918 12.836573 3.871785 -1.729041 0.018109 5.955385 -15.798227 -12.052929 -1.545310 -6.976440 -18.220855 -2.999768
0.106452 0.158295 0.201310 179.445855 -172.968428 3.313908 -7.674276 9.118498 -1.652212 0.000000 0.000000 0.000000 0.000000 0.000000 -0.000000 0.447004 -4.739881 -12.345886 -0.523734 -0.687228 -5.672930 23.879189 25.430502 -1.270226 -20.187716 23.776903 -26.452780 -8.372585 1.325598 -6.756991 -0.523734 -0.687228 -5.672930 4.805197 6.962178 -3.798738 -0.182112 3.962592 -5.890268 -1.096178 4.124608 -4.818304 -1.669811 0.076608 4.128041 9.405785 22.838016 -0.987639 13.966713 11.094610 4.003691 -1.669811 0.076608 4.128041 -16.314707 -12.991511 -1.621830 -7.964941 -18.575296 -3.626792
0.110229 0.153504 0.179616 179.219221 -173.257214 7.169503 -8.184623 9.951057 -1.703983 0.000000 0.000000 0.000000 0.000000 0.000000 -0.000000 0.360570 -4.202355 -12.746020 -6.299968 -1.382916 -8.635704 8.880085 9.374268 0.742760 -24.457231 35.594831 -14.914964 -30.162856 17.288012 2.162476 -6.299968 -1.382916 -8.635704 5.664177 6.321763 -4.136816 -0.168486 10.293826 -12.158565 1.454613 10.336705 -8.548297 -1.882532 0.236093 0.274807 8.769576 22.547819 -0.300919 14.493449 10.850461 4.109844 -1.882532 0.236093 0.274807 -15.878084 -1.110017 -0.842501 -6.708889 -21.673665 -2.823427
0.116740 0.139380 0.162509 178.599356 -174.694505 9.854560 -8.202229 11.635717 -1.609280 0.000000 0.000000 0.000000 0.000000 0.000000 -0.000000 0.580787 -5.115240 -16.660233 -9.146522 -1.734079 -13.559850 -4.282813 4.138076 4.026989 -26.853411 33.106556 -20.823681 -34.999855 18.115278 -1.794271 -9.146522 -1.734079 -13.559850 4.564637 5.986908 -3.451830 -0.700305 8.433121 -12.531375 1.180939 9.764487 -8.226456 -2.485493 0.423543 -2.407162 8.087599 22.769506 0.111424 14.948529 10.737957 4.201269 -2.485493 0.423543 -2.407162 -15.357807 0.613196 -0.658438 -5.156328 -21.855710 -1.774347
0.120333 0.122586 0.166801 177.724173 -175.691165 9.324328 -7.768283 12.346608 -1.495447 0.000000 0.000000 0.000000 0.000000 0.000000 -0.000000 0.819497 -6.320299 -16.363119 -9.772183 -1.645276 -10.056950 -12.398226 2.883592 6.927477 -10.462083 9.434581 -27.853342 -24.455549 10.538022 -7.424651 -9.772183 -1.645276 -10.056950 3.475727 1.062802 -1.874368 -0.345909 3.707390 -10.134759 -0.215170 4.419779 -4.409021 -3.345249 0.528054 -1.874873 7.121641 19.083522 -0.201851 16.824489 9.795006 4.606728 -3.345249 0.528054 -1.874873 -13.594379 -2.452888 -0.564321 -4.919887 -19.625884 -1.669704
0.120113 0.121211 0.173140 177.120010 -176.995792 7.008127 -7.496872 13.300074 -1.400933 0.000000 0.000000 0.000000 0.000000 0.000000 -0.000000 0.456219 -6.381219 -2.661675 -10.043647 -1.506027 -4.172918 -14.464599 2.345785 7.518070 -10.862411 9.517913 -24.611740 -23.501633 10.002735 -7.426302 -10.043647 -1.506027 -4.172918 -4.744296 -0.344447 2.288832 1.008050 5.135096 -4.064314 -3.395006 2.970008 -5.552579 -3.947872 0.492476 0.441067 6.798772 17.452160 -0.632624 17.430897 6.665713 4.871404 -3.947872 0.492476 0.441067 -12.211010 -1.771266 -0.513194 -4.561698 -18.470836 -1.470719
